<?xml version="1.0" encoding="utf-8"?>
<!-- Generator: Adobe Illustrator 26.0.0, SVG Export Plug-In . SVG Version: 6.00 Build 0)  -->
<svg version="1.1" id="Capa_1" xmlns="http://www.w3.org/2000/svg" xmlns:xlink="http://www.w3.org/1999/xlink" x="0px" y="0px"
	 viewBox="0 0 600 600" style="enable-background:new 0 0 600 600;" xml:space="preserve">
<style type="text/css">
	.st0{fill:#B04A38;}
	.st1{fill:#F0C7B1;}
	.st2{fill:#FFE4D6;}
	.st3{fill:#E1AC8F;}
	.st4{fill:none;stroke:#C27B55;stroke-width:4.5;stroke-miterlimit:12;}
	.st5{fill:url(#SvgjsPath4329_00000145770979067977272940000014455388845657311361_);}
	.st6{fill:#F5F4F5;}
	.st7{fill:#FFFFFF;}
	.st8{fill:#DFDDE2;}
	.st9{fill:#B8B6C9;}
	.st10{fill:#82CBE2;}
	.st11{fill:#64B8D3;}
	.st12{fill:#49A6C3;}
	.st13{fill:#A3DFF1;}
	.st14{fill:#3295B4;}
	.st15{fill:#F0C7B1;stroke:#C27B55;stroke-width:4.5;stroke-miterlimit:12;}
	.st16{fill:#C27B55;}
	.st17{fill:#E8B9A0;}
	.st18{fill:url(#SvgjsPath4338_00000126281182891210982220000002417168400023054010_);}
	.st19{fill:none;stroke:#C27B55;stroke-width:2.25;stroke-miterlimit:12;}
	.st20{fill:url(#SvgjsPath4563_00000175299614849295125540000014066280653380895138_);}
	.st21{fill:#60B0C7;}
	.st22{opacity:0.7;fill:url(#SvgjsPath4518_00000158013944368863866520000008166000091313563017_);enable-background:new    ;}
	.st23{opacity:0.4;fill:url(#SvgjsPath4522_00000096022854067526474640000000092863776948635291_);enable-background:new    ;}
	.st24{opacity:0.9;enable-background:new    ;}
	.st25{opacity:0.5;fill:url(#SvgjsPath4528_00000098214276889554454230000005621289396548403604_);enable-background:new    ;}
	.st26{opacity:0.5;fill:url(#SvgjsPath4532_00000129918856684405228480000006678915565074305975_);enable-background:new    ;}
	.st27{opacity:0.75;fill:url(#SvgjsPath4536_00000179636901669529279680000000820260534766648721_);enable-background:new    ;}
	.st28{fill:url(#SvgjsPath4589_00000017481974682726770780000002864084101624024709_);}
	.st29{fill:url(#SvgjsPath4594_00000042715446173471986860000005894031143510116994_);}
	.st30{fill:url(#SvgjsPath4571_00000019667086826592615510000008696490386053569457_);}
	.st31{opacity:0.7;fill:url(#SvgjsPath4541_00000034808677190064007710000008573695282514142110_);enable-background:new    ;}
	.st32{opacity:0.4;fill:url(#SvgjsPath4545_00000110471610089671000200000017096623533834580875_);enable-background:new    ;}
	.st33{opacity:0.5;fill:url(#SvgjsPath4551_00000067233004690403170070000016509694474097168279_);enable-background:new    ;}
	.st34{opacity:0.5;fill:url(#SvgjsPath4555_00000001635613727252477520000013719155486424521384_);enable-background:new    ;}
	.st35{opacity:0.75;fill:url(#SvgjsPath4559_00000097469913427085286310000005597962687430683036_);enable-background:new    ;}
	.st36{fill:url(#SvgjsPath4610_00000173855990046459203730000015247417877925068187_);}
	.st37{fill:url(#SvgjsPath4615_00000018958523113242187920000012030983143594912131_);}
	.st38{fill:url(#SvgjsPath3902_00000020361424707839012320000004228576583325202059_);}
	.st39{fill:url(#SvgjsPath3906_00000133523289289751509690000014056213794797764239_);}
	.st40{fill:#2A232B;}
	.st41{opacity:0.2;fill:#FFF5EF;enable-background:new    ;}
	.st42{fill:#B84131;}
	.st43{fill:#A13623;}
	.st44{fill:#821602;}
	.st45{opacity:0.2;fill:#FFFFFF;enable-background:new    ;}
	.st46{opacity:0.4;fill:#FFFFFF;enable-background:new    ;}
	.st47{fill:#26120B;}
	.st48{display:none;opacity:0.5;fill:#ECF0F1;enable-background:new    ;}
</style>
<g id="svga-group-wrapper">
	<g id="svga-group-backs-single">
	</g>
	<g id="svga-group-humanwrap-move" transform="matrix(1,0,0,1,0,0)">
		<g id="svga-group-humanwrap" transform="matrix(1,0,0,1,0,0)">
			<g id="svga-group-hair-back-move" transform="matrix(1,0,0,1,0,0)">
				<g id="svga-group-hair-back" transform="matrix(1,0,0,1,0,0)">
					<path id="SvgjsPath4430" class="st0" d="M291.2,312.3h-2.1v-2.1h2.1V312.3z"/>
				</g>
			</g>
			<g id="svga-group-humanbody-single">
				<path id="SvgjsPath3910" class="st1" d="M490,520.2c-4.6-9.9-17.2-24.7-31.1-28.7c-17.3-5-56.2-11.1-70.7-14.5
					c-11.6-2.7-34.9-23.7-43.1-30.7c-1.5-1.3-2.7-3.9-2.7-5.8c-0.3-22.8,8.8-83.2,8.8-83.2h-61.1h-61.1c0,0,9.1,60.4,8.8,83.2
					c0,1.9-1.2,4.5-2.7,5.8c-8.2,7-31.5,28-43.1,30.7c-14.4,3.4-53.4,9.7-70.7,14.7c-14,4.1-26.5,18.6-31.1,28.5
					c-7.8,16.8-9.6,47.1-9.6,73.3h209.4h209.4C499.6,567.3,497.8,537,490,520.2z"/>
				<path id="SvgjsPath3911" class="st2" d="M414.1,487.3c51,7.4,72.4,18.2,79.2,106.2h6.4c0-26.2-1.8-56.5-9.6-73.3
					c-4.6-9.9-17.2-24.7-31.1-28.7c-17.3-5-56.2-11.1-70.7-14.5c-11.6-2.7-38.2-25.3-45.3-34.2c7,9.9,26.8,32.7,44.1,38.7
					C395.3,484.3,402.2,485.6,414.1,487.3z M193.3,481.4c17.3-6,37.1-28.8,44.1-38.7c-7.1,9-33.8,31.5-45.3,34.2
					c-14.4,3.4-53.4,9.7-70.7,14.7c-14,4.1-26.5,18.6-31.1,28.5c-7.8,16.8-9.6,47.1-9.6,73.3h6.4c6.7-87.4,28.2-98.8,79.2-106.2
					C178.2,485.6,185.1,484.3,193.3,481.4z"/>
				<path id="SvgjsPath3912" class="st3" d="M281,515.7c0,0-10.6-3.4-14.8-5c-21.9-8.4-93-13.8-93-13.8s74.9,3,91.4,5.8
					c-1-10-6.3-41.9-6.3-41.9s10.8,35.2,13.4,44.1C273.2,509.6,281,515.7,281,515.7z M303.7,512.9c-0.2,0.2-0.4,0.4-0.6,0.6
					C303.3,513.3,303.5,513.1,303.7,512.9z M281,515.7c0,0,6.1,6.3,9.1,6.3c4,0.1,10.1-6.1,12.9-8.6c-2.6,2-8.7,2.9-11.1,3
					C289.1,516.6,281,515.7,281,515.7z M325.1,499.9c-3.2,0.5-9.2,1.7-9.2,1.7l4.8-31.2c-1.4,6.4-9.4,34-17,42.5
					c4-3.4,12.9-5,17.4-5.7c21.4-3.1,21.4-3.1,86-10.3C407.1,496.9,346.2,496.5,325.1,499.9z"/>
				<path id="SvgjsPath3913" class="st4" d="M490,520.2c-4.6-9.9-17.2-24.7-31.1-28.7c-17.3-5-56.2-11.1-70.7-14.5
					c-11.6-2.7-34.9-23.7-43.1-30.7c-1.5-1.3-2.7-3.9-2.7-5.8c-0.3-22.8,8.8-83.2,8.8-83.2h-61.1h-61.1c0,0,9.1,60.4,8.8,83.2
					c0,1.9-1.2,4.5-2.7,5.8c-8.2,7-31.5,28-43.1,30.7c-14.4,3.4-53.4,9.7-70.7,14.7c-14,4.1-26.5,18.6-31.1,28.5
					c-7.8,16.8-9.6,47.1-9.6,73.3h209.4h209.4C499.6,567.3,497.8,537,490,520.2z"/>
			</g>
			<g id="svga-group-chinshadow-single">
				
					<linearGradient id="SvgjsPath4329_00000110433562104092384310000013041961507053892227_" gradientUnits="userSpaceOnUse" x1="98.0566" y1="527.244" x2="98.0566" y2="557.2646" gradientTransform="matrix(3 0 0 -3 -4 2041.67)">
					<stop  offset="0" style="stop-color:#E1AC8F;stop-opacity:0.8"/>
					<stop  offset="0.7" style="stop-color:#C27B55"/>
				</linearGradient>
				<path id="SvgjsPath4329" style="fill:url(#SvgjsPath4329_00000110433562104092384310000013041961507053892227_);" d="M341,441.6
					c-0.1-0.4-0.1-0.7-0.1-1.1c-0.2-15.5,3.8-47.6,6.5-67.2c-32.9-4.2-81.6-4.1-114.4,0c2.7,19.6,6.7,51.7,6.5,67.2
					c0,0.2,0,0.5-0.1,0.8c8,7.5,16.1,13.7,23.2,17.1c11.1,5.3,44.1,5.1,55.3,0C325,455.1,333,449.1,341,441.6z"/>
			</g>
			<g id="svga-group-clothes-single">
				<path id="SvgjsPath4421" class="st6" d="M170.6,595.7l2.8-127.5c0,0,21.4-5.2,34.8-13.2c36.6,46,145.5,36.3,164.1-1.3
					c3.1,1.1,5.7,2.5,8.9,3.6c10.5,7.1,19.3,9.4,19.3,9.4l2,129.2C372.5,596.3,170.6,595.7,170.6,595.7z"/>
				<path id="SvgjsPath4422" class="st7" d="M403.6,474.1c-8.9-1.5-15.9-3.6-19.8-7.4c-11.2,21-56.1,34.3-70.9,36.3
					c43-13.1,61.1-22.6,68.3-45.2c4.2,5,13.7,7.4,25.8,9.5L403.6,474.1z M191.3,467.2c3-0.7,4.6-2.6,7.6-3.3l-3.2-3.9
					c-6.5,4.7-18.8,6.9-33.3,9.3l0.4,7.8c8.3-1.7,16.4-3.7,23.9-7c15.7,17.8,40.1,26.5,65.1,30.1C220.6,492.7,202.6,480,191.3,467.2
					z"/>
				<path id="SvgjsPath4423" class="st8" d="M369.8,458.1c-12.4,23.8-106.3,51.5-159.2,1.8c-3.3,1.3-13.1,4.4-13.1,4.4
					C236,512.6,349,512.9,379,464.1C378.9,464,372.8,459.5,369.8,458.1z"/>
				<path id="SvgjsPath4424" class="st9" d="M372.2,453.5c-21.1,38.9-131.1,44.4-163.9,1.3c-12,3.3-23.5,10.2-35.1,12l-2.6,129
					l231.9,0.2l-1.8-130.7c-7.1-1.5-13.6-5.7-19.4-8.2C378.1,455.8,375.4,454.6,372.2,453.5z M207.5,456.1
					c29.1,48.4,144.1,38.7,166.3,0.2c2.7,1,3.4,1.5,6.5,2.5c-23,44.4-136.8,58.6-183.3,2.4C197.4,461.1,204.2,457.2,207.5,456.1z
					 M194.7,463.1c37.6,56.6,161.8,47.9,187.6-2.7c3.7,2.9,9.5,6.3,16.6,7.8l3.5,123.7l-231.2,0l4-122.1
					C181.1,466.9,190.5,464.8,194.7,463.1z"/>
				<path id="SvgjsPath4425" class="st10" d="M71.5,595.3c-5.4-29-4.8-99.7,18.9-99.5c27.5-11.1,61.3-23.9,89.6-32.1
					c14.5-15.2,28.1-29.6,54.8-44.6c0.8,5.4,3.9,17.9,0,24.7c-2.8,4.9-12.1,11.7-20,17.5c-4.2,5.7-8.2,11.3-13.8,19
					c10.8,46.7,20.1,70.8,21.1,111.3c0,0-3,1.4,135,0.8c4.6-46.8,10.5-70.3,21.7-113.3c0,0-9-10.5-15.1-18.6
					c-4.3-4.2-17.5-15.8-18.5-18.1c-2.5-5.7-1.1-13,0.2-23.8c22.6,10.2,35.6,25.2,54.6,44.6c16.2,4.4,64.6,20.9,88.9,31.9
					c8.3-0.2,13,4.2,16.5,11.4c11.3,23.4,8.6,57.2,4.6,89.6C470.2,596.2,185.5,600.8,71.5,595.3z"/>
				<path id="SvgjsPath4426" class="st11" d="M235.7,424.7c0.3,2.2,0.6,4.4,0.9,6.4c-0.5,0.6-36,48.9-36.3,49.3
					C209,460.4,221.6,439.8,235.7,424.7z M345,424.7c-0.3,2.2-0.4,4.4-0.6,6.4c0.5,0.6,35.5,47.1,35.7,47.4
					C370.9,459.9,359.2,439.8,345,424.7z M426.6,489.7c-9,13.1-10.9,17.6-20.7,30.5c2.2,0,5.9,0.3,8.1,0.3
					C421.7,507.4,421.7,500.7,426.6,489.7z M435.8,584.5c7.9-18.6,14.5-35,22.5-53.7l-2.6-4.2C449.1,545.8,442,565.2,435.8,584.5z
					 M167,520.6c2.2,0,5.9-0.3,8.1-0.3c-9.8-12.9-11.7-13.7-20.7-26.8C159.3,504.4,159.3,507.4,167,520.6z M125.3,526.6l-2.6,4.2
					c8,18.7,10,35,17.9,53.7C134.5,565.2,132,545.8,125.3,526.6z"/>
				<path id="SvgjsPath4427" class="st12" d="M218.5,456.5c2.5-3.4,11-15.2,18-26.3C238.6,441.6,234.8,448.4,218.5,456.5z
					 M344.4,429.4c5.3,9.2,11.6,18.4,18.1,26.8C344.9,448.2,343.7,440,344.4,429.4z"/>
				<path id="SvgjsPath4428" class="st13" d="M345.6,419c0-0.1,0-0.2,0-0.4c37.9,20.9,59.9,52.4,85.3,75.9c-0.9,1.5-2.6,2.5-3.5,4
					C400.8,478.1,388.1,447.4,345.6,419z M231.3,420.3c-31.5,17.2-75.9,69.9-80.3,73.9c0.9,1.5,1.4,1.2,2.4,2.7
					C180.1,476.6,187.4,456.5,231.3,420.3z M489.2,495.1c-2.1-1.7-51.6-21-89.2-31.4c70.6,34.1,95.5,38.8,107.8,50.9
					C507,512.6,505.3,494.6,489.2,495.1z M180.4,463.4c-28.3,8.2-64.6,21.1-90,32.4c-11.2,0.2-19.3,16.6-21,33.7
					C85,494.3,77.3,517.9,180.4,463.4z"/>
				<path id="SvgjsPath4429" class="st14" d="M513.7,541.9c-0.7-18.1-6.4-48.4-24.5-47c-1.5-1.3-43.6-20.5-88.6-32.7
					c-15.4-15.6-34.6-36.9-55.2-43.9c-1.5,13.5-3.1,22.2,0.5,26.6c4.7,5.1,10.3,10.2,15.9,13.7c9.7,12.9,17,20.5,17,20.5
					c-11.4,43.4-18.5,65.6-23,112.4H225.1c-4.5-46.9-11.6-69.1-23-112.4c0,0,7.4-7.6,17-20.5c5.5-3.4,11.2-8.6,15.9-13.7
					c3.5-4.4,1.9-13.2,0.5-26.6c-20.6,7-39.8,28.3-55.2,43.9c-45,12.2-87.1,31.4-88.6,32.7c-18.1-1.3-23.8,29-24.5,47
					c-0.9,22,3,52.2,3.3,54.3h439.9C510.7,594.1,514.6,563.9,513.7,541.9z M233.9,443.7c-4.7,4.7-7.7,6.7-13.6,11.1
					c10.1-13.1,9.1-11.4,16.1-23.5C236.8,436.5,234.8,442.8,233.9,443.7z M74.4,592.1c-2.3-26.9-6.1-51.1,0.9-77.5
					c2.7-10.1,5.2-17,15.6-17.8c2.2,11.6,17,60.2,29.9,93.3c-13-50.7-11.1-39.4-17.2-59.6c-2-6.8-3.9-13.6-6.2-20.3
					c-1.6-4.6-3.5-9.2-4.7-13.9l84.7-31.1c-0.6,0.6-27,28.1-27.6,28.9c3.9,6.3,16.4,15.1,22.7,24.6c-26,2.5-38.8,6.6-48.2,8
					c0.7,1.9,19,53.1,20.9,57.9c-3.1-16.6-10.1-42.5-18.1-57c3-0.4,37.9-5.2,49-7.3c-3.1-6-16.8-17.7-24.2-26.4
					c43.2-38,53.2-57.4,82.9-74.3c0.3,3.2,0.9,6.3,1.2,9.5c-33.1,49.3-37,49.4-37,49.4c9.6,37.3,22.1,75,22.1,113.3L74.4,592.1z
					 M347.1,443.7c-0.9-0.9-2.9-7.2-2.6-12.5c7.1,12.1,6,10.4,16.1,23.5C354.7,450.4,351.8,448.4,347.1,443.7z M506.6,592.1
					l-146.6-0.3c0-38.2,12.5-76,22.1-113.3c0,0-3.9-0.1-37-49.4c0.2-3.2,0.8-6.3,1.2-9.5c29.7,16.9,39.7,36.2,82.9,74.3
					c-7.4,8.8-21.1,20.5-24.2,26.4c11.1,2.1,46,6.9,49,7.3c-8,14.5-15,40.4-18.1,57c1.9-4.8,20.2-56,20.9-57.9
					c-9.4-1.4-22.1-5.6-48.2-8c6.3-9.5,18.8-18.3,22.7-24.6c-0.6-0.8-27.1-28.3-27.6-28.9c0,0,84.7,31.1,84.7,31.1
					c-1.3,4.7-3.1,9.3-4.7,13.9c-2.4,6.7-4.2,13.5-6.2,20.3c-6.1,20.2-4.2,8.9-17.2,59.6c12.9-33.1,27.7-81.7,29.9-93.3
					c10.4,0.9,12.9,7.7,15.6,17.8C512.7,541,508.8,565.2,506.6,592.1z"/>
			</g>
			<g id="svga-group-head" transform="matrix(1,0,0,1,0,0)">
				<g id="svga-group-ears-left-move" transform="matrix(1,0,0,1,0,0)">
					<g id="svga-group-ears-left" transform="matrix(1,0,0,1,0,0)">
						<path id="SvgjsPath4416" class="st15" d="M179.6,272.5c-2-5.2-16.9-12.6-23.5-11.4c-7.4,1.3-10.1,9.1-9.2,14.9
							c2.3,13.6,8.4,19.3,11.1,29.9c2.3,8.9,7.2,14.1,9.6,17.9c3,4.7,5.7,15.4,6.3,16.9c1,2.5,4.4,8.5,10.5,8.2
							c7-0.4,15.8-14,15.9-17C201.2,315.4,184.9,286.1,179.6,272.5z"/>
						<path id="SvgjsPath4417" class="st16" d="M181.2,327.9c0,0,0.9-2.2-0.2-4.2c-1.4-2.6-5.1-7.3-5.9-10.1
							c-0.7-2.3-0.3-7.2-0.4-9.6c-0.2-4.3-3.1-7.2-4-9.6c-6.1-16.3-14.2-26.4-18.9-28.5c-3.4,8.4-0.7,14.5,4.1,27.3
							c-2.9-17.5-0.1-22.9-0.1-22.9s8.4,7.3,12.6,23.4c0.8,2.9-2.3,9-1.7,11.9c0.7,3.7,8.8,10.9,11,13.9
							C179.3,321.8,181.2,327.9,181.2,327.9z"/>
					</g>
				</g>
				<g id="svga-group-ears-right-move" transform="matrix(1,0,0,1,0,0)">
					<g id="svga-group-ears-right" transform="matrix(1,0,0,1,0,0)">
						<path id="SvgjsPath4418" class="st15" d="M400.2,272.5c2-5.2,16.9-12.6,23.5-11.4c7.4,1.3,10.1,9.1,9.2,14.9
							c-2.3,13.6-8.4,19.3-11.1,29.9c-2.3,8.9-7.2,14.1-9.6,17.9c-3,4.7-5.7,15.4-6.3,16.9c-1,2.5-4.4,8.5-10.5,8.2
							c-7-0.4-15.8-14-15.9-17C378.5,315.4,394.9,286.1,400.2,272.5z"/>
						<path id="SvgjsPath4419" class="st16" d="M398.6,327.9c0,0-0.9-2.2,0.2-4.2c1.4-2.6,5.1-7.3,5.9-10.1c0.7-2.3,0.3-7.2,0.5-9.6
							c0.2-4.3,3.1-7.2,4-9.6c6.1-16.3,14.2-26.4,18.9-28.5c3.4,8.4,0.7,14.5-4.1,27.3c2.9-17.5,0.1-22.9,0.1-22.9
							s-8.4,7.3-12.6,23.4c-0.7,2.9,2.3,9,1.7,11.9c-0.7,3.7-8.8,10.9-11,13.9C400.5,321.8,398.6,327.9,398.6,327.9z"/>
					</g>
				</g>
				<g id="svga-group-faceshape-wrap" transform="matrix(1,0,0,1,0,0)">
					<g id="svga-group-faceshape-single">
						<path id="SvgjsPath4326" class="st1" d="M382.3,367.8c-10.5,21.4-42,59.6-64.5,69.7c-11.2,5.1-44.2,5.3-55.3,0
							c-22.3-10.6-54-48.3-64.5-69.7C186.3,344,166.9,266.1,166.9,266c-2.7-10.4-4.2-21.4-4.2-32.7c-0.1-71.2,56.9-129,127.3-129.1
							c70.4-0.1,127.6,57.5,127.7,128.7c0,11.3-1.4,22.3-4.1,32.7C413.5,265.7,394.1,343.8,382.3,367.8z"/>
						<path id="SvgjsPath4327" class="st17" d="M311.4,105.9c56.5,13.3,98.6,64.5,98.5,125.7c0,11.3-1.5,22.3-4.2,32.7
							c0,0.1-18,78-29.6,101.8c-10.2,21-41.3,57.5-63,68.1c-4.5,2.2-18.2,3.3-23,3.3s-18.5-1-23-3.3c-21.7-10.6-52.8-47.2-63-68.1
							c-11.6-23.8-29.6-101.7-29.6-101.8c-2.7-10.4-4.2-21.4-4.2-32.7c-0.1-61.2,42-112.5,98.5-125.7
							c-60.4,10.3-106.3,63.4-106.2,127.3c0,11.3,1.5,22.3,4.2,32.7c0,0.1,19.3,78,31.1,101.8c10.6,21.4,42.3,58.8,64.5,69.7
							c5.6,2.7,19.5,3.9,27.1,3.9c7.6,0,22.6-1.2,28.2-3.9c22.2-10.9,53.9-48.3,64.5-69.7c11.8-23.8,31.1-101.7,31.1-101.8
							c2.7-10.4,4.2-21.4,4.2-32.7C417.8,169.3,371.8,116.2,311.4,105.9z"/>
						<path id="SvgjsPath4328" class="st4" d="M382.3,367.8c-10.5,21.4-42,59.6-64.5,69.7c-11.2,5.1-44.2,5.3-55.3,0
							c-22.3-10.6-54-48.3-64.5-69.7C186.3,344,166.9,266.1,166.9,266c-2.7-10.4-4.2-21.4-4.2-32.7c-0.1-71.2,56.9-129,127.3-129.1
							c70.4-0.1,127.6,57.5,127.7,128.7c0,11.3-1.4,22.3-4.1,32.7C413.5,265.7,394.1,343.8,382.3,367.8z"/>
					</g>
				</g>
				<g id="svga-group-mouth-single-move" transform="matrix(1,0,0,1,0,0)">
					<g id="svga-group-mouth-single" transform="matrix(1,0,0,1,0,0)">
						
							<linearGradient id="SvgjsPath4338_00000147214433437120465700000017786598007269414313_" gradientUnits="userSpaceOnUse" x1="98.0922" y1="547.4905" x2="98.0922" y2="549.585" gradientTransform="matrix(3 0 0 -3 -4 2041.67)">
							<stop  offset="0.1" style="stop-color:#E8B9A0"/>
							<stop  offset="1" style="stop-color:#E1AC8F"/>
						</linearGradient>
						<path id="SvgjsPath4338" style="fill:url(#SvgjsPath4338_00000147214433437120465700000017786598007269414313_);" d="
							M290.6,401.2c-5.9,0.3-7.6-5.8-7.6-5.8s8.2,1.2,14.6-0.7C297.6,394.7,295.8,400.9,290.6,401.2z"/>
						<path id="SvgjsPath4342" class="st16" d="M291.2,396.6c-4.2,0.2-7.9-0.2-8.1-0.2c-0.3,0-0.5-0.3-0.5-0.6
							c0-0.3,0.3-0.5,0.6-0.5c0.1,0,8.6,0.8,14.1-0.7c0.3-0.1,0.6,0.1,0.6,0.4c0.1,0.3-0.1,0.6-0.4,0.6
							C295.6,396.2,293.3,396.5,291.2,396.6z"/>
						<path id="SvgjsPath4343" class="st7" d="M253.5,374.7c0,0,26.2,3.1,35,3.1c9.5,0,40.4-3.1,40.4-3.1
							c-8.9,7.4-18.7,14.5-41,14.7C268.1,389.5,263,382.3,253.5,374.7z"/>
						<path id="SvgjsPath4344" class="st19" d="M253.5,374.7c0,0,26.2,3.1,35,3.1c9.5,0,40.4-3.1,40.4-3.1
							c-8.9,7.4-18.7,14.5-41,14.7C268.1,389.5,263,382.3,253.5,374.7z"/>
					</g>
				</g>
				<g id="svga-group-eyes-left-move" transform="matrix(1,0,0,1,0,0)">
					<g id="svga-group-eyes-left" transform="matrix(1,0,0,1,0,0)">
						<g id="svga-group-eyesback-left">
							
								<radialGradient id="SvgjsPath4563_00000049179584969198667100000000093924200138913420_" cx="127.2819" cy="582.7341" r="9.2506" gradientTransform="matrix(-3.2988 0.1269 -0.1905 -2.7621 765.5735 1871.696)" gradientUnits="userSpaceOnUse">
								<stop  offset="0" style="stop-color:#FFFFFF"/>
								<stop  offset="0.544" style="stop-color:#FDFEFE"/>
								<stop  offset="0.74" style="stop-color:#F6F8F9"/>
								<stop  offset="0.879" style="stop-color:#EAEFF2"/>
								<stop  offset="0.992" style="stop-color:#D9E3E8"/>
								<stop  offset="1" style="stop-color:#D8E2E7"/>
							</radialGradient>
							<path id="SvgjsPath4563" style="fill:url(#SvgjsPath4563_00000049179584969198667100000000093924200138913420_);" d="
								M241.4,266c9.6,1.4,16.6,7.3,22.6,16.6c0,0,0,0,0,0c0,0.1,0,0.1,0.1,0.2c0.5,2.1-1.7,3.8-4.5,5.1c-10,1.3-19.6,3.1-29.7,1.8
								c-20.3-2.6-20.6-11.5-21.6-13.9c-0.5-2.3-0.7-3-0.7-5.2c4.9-2.9,8.5-3.4,12.3-4.2C224.3,265.6,234.2,264.9,241.4,266z"/>
						</g>
						<g id="svga-group-eyesiriswrapper-left" transform="matrix(1,0,0,1,0.25,0)">
							<g id="svga-group-eyesiriscontrol-left" transform="matrix(1,0,0,1,0,0)">
								<g id="svga-group-eyesiris-left" transform="matrix(1,0,0,1,0,0)">
									<path id="SvgjsPath4517" class="st21" d="M248.6,277.7c0,6.9-5.6,12.6-12.6,12.6c-6.9,0-12.6-5.6-12.6-12.6l0,0
										c0-6.9,5.6-12.6,12.6-12.6C242.9,265.2,248.6,270.8,248.6,277.7L248.6,277.7z"/>
									
										<radialGradient id="SvgjsPath4518_00000072282080620239559270000013634482671952066966_" cx="-651.1069" cy="754.8102" r="41.7155" gradientTransform="matrix(0.288 -7.440000e-02 -7.350000e-02 -0.2883 478.8256 446.9307)" gradientUnits="userSpaceOnUse">
										<stop  offset="0" style="stop-color:#FFFFFF"/>
										<stop  offset="1" style="stop-color:#FFFFFF;stop-opacity:0"/>
									</radialGradient>
									
										<path id="SvgjsPath4518" style="opacity:0.7;fill:url(#SvgjsPath4518_00000072282080620239559270000013634482671952066966_);enable-background:new    ;" d="
										M234.6,265.3c0,0-0.1,0-0.1,0c0.1,0.3,0.1,0.6,0.2,0.9C234.6,265.9,234.6,265.6,234.6,265.3z M234.6,266.2
										c0.1,4.1,0.4,7.8,1.1,9.1C236.1,273.8,235.4,270.2,234.6,266.2z M235.7,275.3c-0.1,0.3-0.2,0.6-0.4,0.7s-0.5,0-0.8-0.2
										c0.1,0.3,0.1,0.6-0.1,0.8c-0.2,0.2-0.4,0.2-0.8,0.2c0.2,0.3,0.4,0.5,0.3,0.7c-0.1,0.2-0.3,0.4-0.6,0.5
										c0.3,0.1,0.6,0.3,0.6,0.5s-0.1,0.5-0.3,0.7c0.4,0,0.6,0,0.8,0.2c0.1,0.2,0.2,0.4,0.1,0.8c0.3-0.2,0.6-0.3,0.8-0.2
										c0.2,0.1,0.3,0.3,0.4,0.7c0.2-0.3,0.4-0.5,0.6-0.5c0.2,0,0.5,0.1,0.7,0.4c0-0.4,0.1-0.6,0.3-0.8c0.2-0.1,0.5-0.1,0.8,0
										c-0.2-0.3-0.2-0.6-0.1-0.8c0.1-0.2,0.4-0.3,0.7-0.3c-0.3-0.2-0.5-0.4-0.5-0.6c0-0.2,0.2-0.4,0.5-0.6
										c-0.4,0-0.6-0.2-0.7-0.3c-0.1-0.2,0-0.5,0.1-0.8c-0.3,0.1-0.6,0.2-0.8,0c-0.2-0.1-0.3-0.4-0.3-0.8
										c-0.2,0.3-0.5,0.4-0.7,0.4C236,275.8,235.9,275.6,235.7,275.3z M237,275.5c1-1.1,2.1-4.6,3.3-8.6
										C238.5,270.6,237,274,237,275.5z M240.2,266.9c0.1-0.3,0.3-0.5,0.4-0.8c0,0-0.1,0-0.1-0.1
										C240.4,266.3,240.3,266.6,240.2,266.9z M238,276.2c1.4-0.5,4-3.1,6.9-6.1C241.6,272.6,238.7,274.9,238,276.2z M244.9,270.1
										c0.2-0.2,0.4-0.3,0.6-0.5c0,0-0.1-0.1-0.1-0.1C245.3,269.7,245.1,269.9,244.9,270.1z M238.6,277.3c1.5,0.2,5-0.9,8.9-2.2
										C243.5,275.8,239.9,276.5,238.6,277.3z M247.6,275.2c0.2,0,0.5-0.1,0.7-0.1c0,0,0-0.1,0-0.1
										C248,275,247.8,275.1,247.6,275.2z M238.6,278.6c1.2,0.9,4.9,1.6,8.9,2.2C243.6,279.5,240.1,278.4,238.6,278.6z
										 M247.5,280.8c0.2,0.1,0.4,0.1,0.6,0.2c0,0,0-0.1,0-0.1C248,280.9,247.7,280.9,247.5,280.8z M238,279.8
										c0.7,1.3,3.6,3.6,6.9,6.1C242,282.9,239.4,280.3,238,279.8z M244.9,285.9c0.1,0.1,0.3,0.3,0.4,0.4c0,0,0,0,0.1-0.1
										C245.2,286.1,245,286,244.9,285.9z M236.9,280.5c0,1.5,1.5,4.9,3.2,8.6C239.1,285.1,237.9,281.6,236.9,280.5z M240.2,289.1
										c0,0.2,0.1,0.3,0.1,0.5c0,0,0.1,0,0.1,0C240.3,289.4,240.3,289.2,240.2,289.1z M235.7,280.6c-0.7,1.3-1,5-1.1,9.1
										C235.4,285.7,236,282.1,235.7,280.6z M234.5,289.8c0,0.2-0.1,0.3-0.1,0.5c0,0,0.1,0,0.1,0
										C234.5,290.1,234.5,289.9,234.5,289.8z M234.5,280.2c-1.2,0.9-3.2,4-5.3,7.6C231.9,284.5,234.1,281.6,234.5,280.2z
										 M229.2,287.7c-0.1,0.1-0.2,0.3-0.3,0.4c0,0,0.1,0,0.1,0.1C229,288,229.1,287.9,229.2,287.7z M233.6,279.2
										c-1.5,0.2-4.7,2-8.2,4.2C229.3,281.9,232.6,280.3,233.6,279.2z M225.5,283.5c-0.2,0.1-0.4,0.2-0.6,0.2c0,0,0,0.1,0,0.1
										C225.1,283.7,225.3,283.6,225.5,283.5z M233.3,278c-1.4-0.5-5.1-0.4-9.2,0C228.2,278.3,231.9,278.5,233.3,278z
										 M224.1,277.9c-0.2,0-0.5,0-0.7-0.1c0,0,0,0.1,0,0.1C223.7,278,223.9,277.9,224.1,277.9z M233.6,276.7
										c-1-1.1-4.3-2.7-8.1-4.3C229,274.6,232.1,276.5,233.6,276.7z M225.5,272.4c-0.2-0.1-0.4-0.3-0.7-0.4c0,0,0,0.1-0.1,0.1
										C225,272.2,225.3,272.3,225.5,272.4z M234.5,275.8c-0.4-1.5-2.6-4.4-5.2-7.6C231.3,271.8,233.2,274.9,234.5,275.8z
										 M229.3,268.2c-0.1-0.2-0.3-0.5-0.4-0.7c0,0-0.1,0.1-0.1,0.1C228.9,267.7,229.1,267.9,229.3,268.2z"/>
									
										<radialGradient id="SvgjsPath4522_00000141434000512204244170000005390359444726849677_" cx="-536.7525" cy="746.9476" r="41.717" gradientTransform="matrix(0.2973 2.656896e-03 3.300000e-03 -0.2973 392.941 501.2725)" gradientUnits="userSpaceOnUse">
										<stop  offset="0" style="stop-color:#FFFFFF"/>
										<stop  offset="1" style="stop-color:#FFFFFF;stop-opacity:0"/>
									</radialGradient>
									
										<path id="SvgjsPath4522" style="opacity:0.4;fill:url(#SvgjsPath4522_00000141434000512204244170000005390359444726849677_);enable-background:new    ;" d="
										M237.8,265.3c-0.1,0-0.1,0-0.1,0c0,0.3,0,0.6-0.1,0.9C237.7,265.9,237.8,265.6,237.8,265.3z M237.6,266.2
										c-0.9,4-1.6,7.6-1.3,9.1C237.1,274,237.4,270.3,237.6,266.2z M236.3,275.3c-0.2,0.3-0.4,0.5-0.6,0.5
										c-0.2,0-0.5-0.1-0.7-0.4c0,0.4-0.1,0.6-0.3,0.7c-0.2,0.1-0.5,0.1-0.8,0c0.2,0.3,0.2,0.6,0.1,0.8c-0.1,0.2-0.4,0.3-0.7,0.3
										c0.3,0.2,0.5,0.4,0.5,0.7c0,0.2-0.2,0.4-0.5,0.6c0.4,0.1,0.6,0.2,0.7,0.4c0.1,0.2,0,0.5-0.1,0.8c0.3-0.1,0.6-0.1,0.8,0
										c0.2,0.1,0.3,0.4,0.2,0.8c0.2-0.3,0.5-0.4,0.7-0.4c0.2,0,0.4,0.2,0.6,0.6c0.1-0.3,0.2-0.6,0.5-0.7c0.2-0.1,0.5,0,0.8,0.2
										c-0.1-0.3-0.1-0.6,0.1-0.8c0.2-0.2,0.4-0.2,0.8-0.2c-0.2-0.3-0.4-0.5-0.3-0.7c0.1-0.2,0.3-0.4,0.6-0.5
										c-0.3-0.1-0.6-0.3-0.6-0.5c0-0.2,0.1-0.5,0.3-0.7c-0.4,0-0.6,0-0.8-0.2c-0.1-0.2-0.2-0.4-0.1-0.8c-0.3,0.2-0.6,0.3-0.8,0.2
										C236.5,275.9,236.4,275.6,236.3,275.3z M237.5,275.8c1.3-0.8,3.3-3.9,5.4-7.5C240.2,271.5,237.9,274.3,237.5,275.8z
										 M242.9,268.3c0.2-0.2,0.4-0.4,0.6-0.7c0,0-0.1-0.1-0.1-0.1C243.2,267.8,243.1,268.1,242.9,268.3z M238.3,276.8
										c1.5-0.1,4.7-2,8.2-4.1C242.8,274.2,239.4,275.6,238.3,276.8z M246.6,272.7c0.2-0.1,0.5-0.2,0.7-0.3c0,0,0-0.1-0.1-0.1
										C247,272.4,246.8,272.5,246.6,272.7z M238.6,278c1.4,0.6,5.1,0.5,9.2,0.2C243.7,277.8,240,277.5,238.6,278z M247.8,278.2
										c0.2,0,0.5,0.1,0.7,0.1c0,0,0-0.1,0-0.1C248.3,278.2,248.1,278.2,247.8,278.2z M238.3,279.2c1,1.2,4.3,2.8,8,4.5
										C242.9,281.4,239.8,279.5,238.3,279.2z M246.3,283.7c0.2,0.1,0.3,0.2,0.5,0.4c0,0,0-0.1,0.1-0.1
										C246.7,283.9,246.5,283.8,246.3,283.7z M237.4,280.2c0.3,1.5,2.5,4.4,5.1,7.7C240.5,284.3,238.6,281.1,237.4,280.2z
										 M242.5,287.9c0.1,0.2,0.2,0.3,0.3,0.5c0,0,0.1,0,0.1-0.1C242.7,288.2,242.6,288,242.5,287.9z M236.2,280.6
										c-0.4,1.5,0.2,5.1,0.9,9.2C237,285.6,236.9,282,236.2,280.6z M237.1,289.8c0,0.2,0,0.3,0,0.5c0,0,0.1,0,0.1,0
										C237.2,290.1,237.1,289.9,237.1,289.8z M234.9,280.4c-1,1.1-2.2,4.6-3.5,8.5C233.3,285.3,234.9,281.9,234.9,280.4z
										 M231.5,289c-0.1,0.1-0.1,0.3-0.2,0.4c0,0,0,0,0.1,0C231.4,289.3,231.4,289.1,231.5,289z M233.9,279.7
										c-1.4,0.5-4.1,3-7,5.9C230.2,283.2,233.2,281,233.9,279.7z M226.9,285.6c-0.1,0.1-0.3,0.2-0.4,0.3c0,0,0,0,0.1,0.1
										C226.6,285.9,226.7,285.7,226.9,285.6z M233.3,278.5c-1.5-0.2-5,0.8-9,2C228.4,280,232.1,279.4,233.3,278.5z M224.3,280.5
										c-0.2,0-0.4,0.1-0.6,0.1c0,0,0,0.1,0,0.1C224,280.6,224.1,280.6,224.3,280.5z M233.3,277.2c-1.2-0.9-4.8-1.7-8.9-2.4
										C228.3,276.2,231.8,277.4,233.3,277.2z M224.5,274.8c-0.2-0.1-0.4-0.2-0.6-0.2c0,0,0,0.1,0,0.1
										C224,274.8,224.2,274.8,224.5,274.8z M234,276.1c-0.7-1.3-3.5-3.7-6.7-6.3C230,272.9,232.6,275.6,234,276.1z M227.2,269.9
										c-0.2-0.2-0.3-0.4-0.5-0.6c0,0-0.1,0.1-0.1,0.1C226.8,269.5,227,269.7,227.2,269.9z M235,275.4c0-1.5-1.4-4.9-3.1-8.7
										C233,270.7,234.1,274.3,235,275.4z M232,266.7c-0.1-0.3-0.1-0.5-0.2-0.8c0,0-0.1,0-0.1,0
										C231.7,266.2,231.9,266.5,232,266.7z"/>
									<path id="SvgjsPath4526" class="st21" d="M240.9,277.7c0,2.7-2.2,4.9-4.9,4.9c-2.7,0-4.9-2.2-4.9-4.9
										c0-2.7,2.2-4.9,4.9-4.9C238.7,272.8,240.9,275,240.9,277.7z"/>
									<path id="SvgjsPath4527" class="st24" d="M240.9,277.7c0,2.7-2.2,4.9-4.9,4.9c-2.7,0-4.9-2.2-4.9-4.9
										c0-2.7,2.2-4.9,4.9-4.9C238.7,272.8,240.9,275,240.9,277.7z"/>
									
										<linearGradient id="SvgjsPath4528_00000121270195166906684630000010087044651466171062_" gradientUnits="userSpaceOnUse" x1="129.2543" y1="585.0034" x2="129.9078" y2="585.7825" gradientTransform="matrix(3 0 0 -3 -158.75 2041.67)">
										<stop  offset="0" style="stop-color:#FFFFFF"/>
										<stop  offset="1" style="stop-color:#FFFFFF;stop-opacity:0"/>
									</linearGradient>
									
										<path id="SvgjsPath4528" style="opacity:0.5;fill:url(#SvgjsPath4528_00000121270195166906684630000010087044651466171062_);enable-background:new    ;" d="
										M229.1,283.5c0.9-0.6,2.2-0.4,2.8,0.6c0.6,0.9,0.4,2.2-0.6,2.8c-0.9,0.6-2.2,0.4-2.8-0.6
										C227.9,285.4,228.2,284.1,229.1,283.5L229.1,283.5z"/>
									
										<linearGradient id="SvgjsPath4532_00000153669807065894509270000009436005621435508905_" gradientUnits="userSpaceOnUse" x1="132.4248" y1="589.1732" x2="131.9019" y2="588.5497" gradientTransform="matrix(3 0 0 -3 -158.75 2041.67)">
										<stop  offset="0" style="stop-color:#FFFFFF"/>
										<stop  offset="1" style="stop-color:#FFFFFF;stop-opacity:0"/>
									</linearGradient>
									
										<path id="SvgjsPath4532" style="opacity:0.5;fill:url(#SvgjsPath4532_00000153669807065894509270000009436005621435508905_);enable-background:new    ;" d="
										M239.9,277c-0.5,0.8-2,0.7-3.4-0.2c-1.3-0.9-2-2.3-1.5-3v0c0.5-0.8,2-0.7,3.4,0.2C239.8,274.9,240.4,276.2,239.9,277
										L239.9,277z"/>
									
										<linearGradient id="SvgjsPath4536_00000000928360188955289440000010403230396264329648_" gradientUnits="userSpaceOnUse" x1="134.1171" y1="590.9005" x2="132.9121" y2="589.4644" gradientTransform="matrix(3 0 0 -3 -158.75 2041.67)">
										<stop  offset="0" style="stop-color:#FFFFFF"/>
										<stop  offset="1" style="stop-color:#FFFFFF;stop-opacity:0"/>
									</linearGradient>
									
										<path id="SvgjsPath4536" style="opacity:0.75;fill:url(#SvgjsPath4536_00000000928360188955289440000010403230396264329648_);enable-background:new    ;" d="
										M245.9,274.9c-1.2,1.8-4.3,1.9-6.9,0.2c-2.6-1.7-3.7-4.5-2.5-6.4c1.2-1.8,4.3-1.9,6.9-0.2
										C245.9,270.3,247.1,273.1,245.9,274.9L245.9,274.9z"/>
								</g>
							</g>
						</g>
						<g id="svga-group-eyesfront-left">
							<path id="SvgjsPath4588" class="st1" d="M196.2,276.8c6.8,23.7,15.7,48.8,37,49.6s46.4-15.2,46.7-46.6
								c0.4-35.1-21.9-49-43.3-49.7S186.1,241.5,196.2,276.8z M208.2,275.8c-0.5-2.3-0.7-3-0.7-5.2c4.2-2.5,8.5-3.2,12.3-4
								c4.4-0.9,14.4-1.8,21.6-0.7c9.6,1.4,16.6,7.3,22.6,16.6c0,0,0,0,0,0c0,0.1,0,0.1,0.1,0.2c0.5,2.1-1.7,3.8-4.5,5.1
								c-10,1.3-19.6,3.1-29.7,1.8C209.6,287.1,209.2,278.2,208.2,275.8z"/>
							
								<radialGradient id="SvgjsPath4589_00000055679336948977720130000012296913274311180204_" cx="137.261" cy="704.4492" r="11.8978" fx="146.642" fy="703.6937" gradientTransform="matrix(2.9652 0.4101 -0.4008 2.2062 116.7992 -1336.3478)" gradientUnits="userSpaceOnUse">
								<stop  offset="0" style="stop-color:#E1AC8F"/>
								<stop  offset="0.7" style="stop-color:#E1AC8F;stop-opacity:0.3"/>
								<stop  offset="1" style="stop-color:#F0C7B1;stop-opacity:0"/>
							</radialGradient>
							<path id="SvgjsPath4589" style="fill:url(#SvgjsPath4589_00000055679336948977720130000012296913274311180204_);" d="
								M236.2,301.1c19.4,2.9,37.4-6.3,40.2-20.6c2.8-14.3-10.6-28.4-30-31.3c-19.4-2.9-37.4,6.3-40.2,20.7
								C203.4,284.2,216.8,298.2,236.2,301.1z M207.6,270.6c4.5-2.4,8.5-3.2,12.3-4c4.4-0.9,14.4-1.8,21.6-0.7
								c9.6,1.4,16.6,7.3,22.6,16.6c0,0,0,0,0,0c0,0.1,0,0.1,0.1,0.2c0.5,2.1-1.7,3.8-4.5,5.1c-10,1.3-19.6,3.1-29.7,1.8
								c-20.3-2.6-20.6-11.5-21.6-13.9C207.7,273.5,207.5,272.8,207.6,270.6z"/>
							
								<radialGradient id="SvgjsPath4594_00000101080761914524964730000015267702481579712385_" cx="78.9208" cy="565.4276" r="18.3175" gradientTransform="matrix(2.1549 -0.18 -0.2409 -1.8429 197.7271 1355.6667)" gradientUnits="userSpaceOnUse">
								<stop  offset="0.95" style="stop-color:#000000;stop-opacity:0"/>
								<stop  offset="1" style="stop-color:#000000;stop-opacity:0.2"/>
							</radialGradient>
							<path id="SvgjsPath4594" style="fill:url(#SvgjsPath4594_00000101080761914524964730000015267702481579712385_);" d="
								M208.2,275.8c-0.5-2.3-0.7-3-0.7-5.2c4.4-2.5,8.5-3.2,12.3-4c4.4-0.9,14.4-1.8,21.6-0.7c9.6,1.4,16.6,7.3,22.6,16.6
								c0,0,0,0,0,0c0,0.1,0,0.1,0.1,0.2c0.5,2.1-1.7,3.8-4.5,5.1c-10,1.3-19.6,3.1-29.7,1.8C209.6,287.1,209.2,278.2,208.2,275.8z"
								/>
							<path id="SvgjsPath4598" class="st16" d="M240.6,260.4c6.9,1.1,13.6,4.3,19.9,8.3c1.3,0.8,2.9,1.8,5.3,3
								c-1.7-0.4-3.3-1.3-4.8-2.1c1.5,1.5,3,3.2,4.2,4.9c-5.3-6.6-15.3-11.6-23.8-13.3c-8.2-1.6-23-0.6-34,4.3
								C217.3,259.8,232,259,240.6,260.4z"/>
							<path id="SvgjsPath4599" d="M264,282.5c-6-9.1-13-14.8-22.6-16.2c-10.1-1.5-23.6-0.5-31.5,3.9c-0.6,0.4-3.4,2.6-2.9,0.2
								c1.8-2.4,9.1-5.3,12.6-6.1C258.8,254.7,266.3,285.8,264,282.5z M207.7,275.3c-1.5,4.3,1.8,13.9,21.2,15.7
								c13.8,1.3,33-3.7,30.7-3.4c-10,1.2-19.6,3-29.8,1.8C206.9,286.5,209.5,275.7,207.7,275.3z"/>
						</g>
					</g>
				</g>
				<g id="svga-group-eyes-right-move" transform="matrix(1,0,0,1,0,0)">
					<g id="svga-group-eyes-right" transform="matrix(1,0,0,1,0,0)">
						<g id="svga-group-eyesback-right">
							
								<radialGradient id="SvgjsPath4571_00000150816863754190545820000015877771205656194218_" cx="119.875" cy="582.3936" r="9.2499" gradientTransform="matrix(3.2988 0.1269 0.1905 -2.7621 -161.5735 1871.696)" gradientUnits="userSpaceOnUse">
								<stop  offset="0" style="stop-color:#FFFFFF"/>
								<stop  offset="0.544" style="stop-color:#FDFEFE"/>
								<stop  offset="0.74" style="stop-color:#F6F8F9"/>
								<stop  offset="0.879" style="stop-color:#EAEFF2"/>
								<stop  offset="0.992" style="stop-color:#D9E3E8"/>
								<stop  offset="1" style="stop-color:#D8E2E7"/>
							</radialGradient>
							<path id="SvgjsPath4571" style="fill:url(#SvgjsPath4571_00000150816863754190545820000015877771205656194218_);" d="
								M338.1,266c-9.6,1.4-16.6,7.3-22.6,16.6c0,0,0,0,0,0c0,0.1,0,0.1-0.1,0.2c-0.5,2.1,1.7,3.8,4.5,5.1c10,1.3,19.6,3.1,29.7,1.8
								c20.3-2.6,20.6-11.5,21.6-13.9c0.5-2.3,0.7-3,0.7-5.2c-4.9-2.9-8.5-3.4-12.3-4.2C355.2,265.6,345.3,264.9,338.1,266z"/>
						</g>
						<g id="svga-group-eyesiriswrapper-right" transform="matrix(1,0,0,1,-0.25,0)">
							<g id="svga-group-eyesiriscontrol-right" transform="matrix(1,0,0,1,0,0)">
								<g id="svga-group-eyesiris-right" transform="matrix(1,0,0,1,0,0)">
									<path id="SvgjsPath4540" class="st21" d="M356.9,277.7c0,6.9-5.6,12.6-12.6,12.6c-6.9,0-12.6-5.6-12.6-12.6l0,0
										c0-6.9,5.6-12.6,12.6-12.6C351.3,265.2,356.9,270.8,356.9,277.7L356.9,277.7z"/>
									
										<radialGradient id="SvgjsPath4541_00000132775665647551403640000013580753722209488016_" cx="-802.5221" cy="794.0153" r="41.7161" gradientTransform="matrix(0.288 -7.440000e-02 -7.350000e-02 -0.2883 633.6786 446.9682)" gradientUnits="userSpaceOnUse">
										<stop  offset="0" style="stop-color:#FFFFFF"/>
										<stop  offset="1" style="stop-color:#FFFFFF;stop-opacity:0"/>
									</radialGradient>
									
										<path id="SvgjsPath4541" style="opacity:0.7;fill:url(#SvgjsPath4541_00000132775665647551403640000013580753722209488016_);enable-background:new    ;" d="
										M342.9,265.3c0,0-0.1,0-0.1,0c0.1,0.3,0.1,0.6,0.2,0.9C343,265.9,343,265.6,342.9,265.3z M343,266.2
										c0.1,4.1,0.4,7.8,1.1,9.1C344.4,273.8,343.8,270.2,343,266.2z M344.1,275.3c-0.1,0.3-0.2,0.6-0.4,0.7
										c-0.2,0.1-0.5,0-0.8-0.2c0.1,0.3,0.1,0.6-0.1,0.8c-0.2,0.2-0.4,0.2-0.8,0.2c0.2,0.3,0.4,0.5,0.3,0.7
										c-0.1,0.2-0.3,0.4-0.6,0.5c0.3,0.1,0.6,0.3,0.6,0.5s-0.1,0.5-0.3,0.7c0.4,0,0.6,0,0.8,0.2c0.1,0.2,0.2,0.4,0.1,0.8
										c0.3-0.2,0.6-0.3,0.8-0.2c0.2,0.1,0.3,0.3,0.4,0.7c0.2-0.3,0.4-0.5,0.6-0.5c0.2,0,0.5,0.1,0.7,0.4c0-0.4,0.1-0.6,0.3-0.8
										c0.2-0.1,0.5-0.1,0.8,0c-0.2-0.3-0.2-0.6-0.1-0.8c0.1-0.2,0.4-0.3,0.7-0.3c-0.3-0.2-0.5-0.4-0.5-0.6c0-0.2,0.2-0.4,0.5-0.6
										c-0.4,0-0.6-0.2-0.7-0.3c-0.1-0.2,0-0.5,0.1-0.8c-0.3,0.1-0.6,0.2-0.8,0s-0.3-0.4-0.3-0.8c-0.2,0.3-0.5,0.4-0.7,0.4
										C344.4,275.8,344.2,275.6,344.1,275.3z M345.3,275.5c1-1.1,2.1-4.6,3.3-8.6C346.8,270.6,345.3,274,345.3,275.5z
										 M348.6,266.9c0.1-0.3,0.3-0.5,0.4-0.8c0,0-0.1,0-0.1-0.1C348.8,266.3,348.7,266.6,348.6,266.9z M346.4,276.2
										c1.4-0.5,4-3.1,6.9-6.1C350,272.6,347.1,274.9,346.4,276.2z M353.3,270.1c0.2-0.2,0.4-0.3,0.6-0.5c0,0-0.1-0.1-0.1-0.1
										C353.7,269.7,353.5,269.9,353.3,270.1z M347,277.3c1.5,0.2,5-0.9,8.9-2.2C351.8,275.8,348.2,276.5,347,277.3z M355.9,275.2
										c0.2,0,0.5-0.1,0.7-0.1c0,0,0-0.1,0-0.1C356.4,275,356.1,275.1,355.9,275.2z M347,278.6c1.2,0.9,4.9,1.6,8.9,2.2
										C352,279.5,348.5,278.4,347,278.6z M355.9,280.8c0.2,0.1,0.4,0.1,0.6,0.2c0,0,0-0.1,0-0.1
										C356.3,280.9,356.1,280.9,355.9,280.8z M346.4,279.8c0.7,1.3,3.6,3.6,6.9,6.1C350.4,282.9,347.8,280.3,346.4,279.8z
										 M353.2,285.9c0.1,0.1,0.2,0.3,0.4,0.4c0,0,0,0,0.1-0.1C353.5,286.1,353.4,286,353.2,285.9z M345.3,280.5
										c0,1.5,1.5,4.9,3.2,8.6C347.4,285.1,346.3,281.6,345.3,280.5z M348.6,289.1c0,0.2,0.1,0.3,0.1,0.5c0,0,0.1,0,0.1,0
										C348.7,289.4,348.6,289.2,348.6,289.1z M344,280.6c-0.7,1.3-1,5-1.1,9.1C343.8,285.7,344.4,282.1,344,280.6z M342.9,289.8
										c0,0.2-0.1,0.3-0.1,0.5c0,0,0.1,0,0.1,0C342.9,290.1,342.9,289.9,342.9,289.8z M342.8,280.2c-1.2,0.9-3.2,4-5.3,7.6
										C340.2,284.5,342.5,281.6,342.8,280.2z M337.6,287.7c-0.1,0.1-0.2,0.3-0.3,0.4c0,0,0.1,0,0.1,0.1
										C337.4,288,337.5,287.9,337.6,287.7z M342,279.2c-1.5,0.2-4.7,2-8.2,4.2C337.6,281.9,341,280.3,342,279.2z M333.8,283.5
										c-0.2,0.1-0.4,0.2-0.6,0.2c0,0,0,0.1,0,0.1C333.5,283.7,333.7,283.6,333.8,283.5z M341.7,278c-1.4-0.5-5.1-0.4-9.2,0
										C336.6,278.3,340.3,278.5,341.7,278z M332.5,277.9c-0.2,0-0.5,0-0.7-0.1c0,0,0,0.1,0,0.1C332,278,332.3,277.9,332.5,277.9z
										 M342,276.7c-1-1.1-4.3-2.7-8.1-4.3C337.3,274.6,340.5,276.5,342,276.7z M333.9,272.4c-0.2-0.1-0.4-0.3-0.7-0.4
										c0,0,0,0.1-0.1,0.1C333.4,272.2,333.6,272.3,333.9,272.4z M342.9,275.8c-0.4-1.5-2.6-4.4-5.2-7.6
										C339.7,271.8,341.6,274.9,342.9,275.8z M337.6,268.2c-0.1-0.2-0.3-0.5-0.4-0.7c0,0-0.1,0.1-0.1,0.1
										C337.3,267.7,337.5,267.9,337.6,268.2z"/>
									
										<radialGradient id="SvgjsPath4545_00000083810387600729852750000015005516001475308212_" cx="-693.093" cy="745.5469" r="41.7191" gradientTransform="matrix(0.2973 2.656896e-03 3.300000e-03 -0.2973 547.7899 501.2714)" gradientUnits="userSpaceOnUse">
										<stop  offset="0" style="stop-color:#FFFFFF"/>
										<stop  offset="1" style="stop-color:#FFFFFF;stop-opacity:0"/>
									</radialGradient>
									
										<path id="SvgjsPath4545" style="opacity:0.4;fill:url(#SvgjsPath4545_00000083810387600729852750000015005516001475308212_);enable-background:new    ;" d="
										M346.2,265.3c-0.1,0-0.1,0-0.1,0c0,0.3,0,0.6-0.1,0.9C346.1,265.9,346.1,265.6,346.2,265.3z M346,266.2
										c-0.9,4-1.6,7.6-1.3,9.1C345.4,274,345.8,270.3,346,266.2z M344.7,275.3c-0.2,0.3-0.4,0.5-0.6,0.5c-0.2,0-0.5-0.1-0.7-0.4
										c0,0.4-0.1,0.6-0.3,0.7c-0.2,0.1-0.5,0.1-0.8,0c0.2,0.3,0.2,0.6,0.1,0.8c-0.1,0.2-0.4,0.3-0.7,0.3c0.3,0.2,0.5,0.4,0.5,0.7
										c0,0.2-0.2,0.4-0.5,0.6c0.4,0.1,0.6,0.2,0.7,0.4c0.1,0.2,0,0.5-0.1,0.8c0.3-0.1,0.6-0.1,0.8,0s0.3,0.4,0.2,0.8
										c0.2-0.3,0.5-0.4,0.7-0.4c0.2,0,0.4,0.2,0.6,0.6c0.1-0.3,0.2-0.6,0.5-0.7c0.2-0.1,0.5,0,0.8,0.2c-0.1-0.3-0.1-0.6,0.1-0.8
										c0.2-0.2,0.4-0.2,0.8-0.2c-0.2-0.3-0.4-0.5-0.3-0.7c0.1-0.2,0.3-0.4,0.6-0.5c-0.3-0.1-0.6-0.3-0.6-0.5
										c0-0.2,0.1-0.5,0.3-0.7c-0.4,0-0.6,0-0.8-0.2c-0.1-0.2-0.2-0.4-0.1-0.8c-0.3,0.2-0.6,0.3-0.8,0.2
										C344.9,275.9,344.8,275.6,344.7,275.3z M345.9,275.8c1.3-0.8,3.3-3.9,5.4-7.5C348.6,271.5,346.3,274.3,345.9,275.8z
										 M351.3,268.3c0.2-0.2,0.4-0.4,0.6-0.7c0,0-0.1-0.1-0.1-0.1C351.6,267.8,351.4,268.1,351.3,268.3z M346.7,276.8
										c1.5-0.1,4.7-2,8.2-4.1C351.1,274.2,347.7,275.6,346.7,276.8z M355,272.7c0.2-0.1,0.5-0.2,0.7-0.3c0,0,0-0.1-0.1-0.1
										C355.4,272.4,355.2,272.5,355,272.7z M347,278c1.4,0.6,5.1,0.5,9.2,0.2C352.1,277.8,348.4,277.5,347,278z M356.2,278.2
										c0.2,0,0.5,0.1,0.7,0.1c0,0,0-0.1,0-0.1C356.7,278.2,356.4,278.2,356.2,278.2z M346.7,279.2c1,1.2,4.3,2.8,8,4.5
										C351.3,281.4,348.1,279.5,346.7,279.2z M354.7,283.7c0.2,0.1,0.3,0.2,0.5,0.4c0,0,0-0.1,0.1-0.1
										C355.1,283.9,354.9,283.8,354.7,283.7z M345.8,280.2c0.3,1.5,2.5,4.4,5.1,7.7C348.9,284.3,347,281.1,345.8,280.2z
										 M350.8,287.9c0.1,0.2,0.2,0.3,0.3,0.5c0,0,0,0,0.1-0.1C351.1,288.2,350.9,288,350.8,287.9z M344.6,280.6
										c-0.4,1.5,0.2,5.1,0.9,9.2C345.4,285.6,345.2,282,344.6,280.6z M345.5,289.8c0,0.2,0,0.3,0,0.5c0,0,0.1,0,0.1,0
										C345.5,290.1,345.5,289.9,345.5,289.8z M343.3,280.4c-1,1.1-2.2,4.6-3.5,8.5C341.7,285.3,343.3,281.9,343.3,280.4z
										 M339.8,289c-0.1,0.1-0.1,0.3-0.2,0.4c0,0,0,0,0.1,0C339.7,289.3,339.8,289.1,339.8,289z M342.3,279.7
										c-1.4,0.5-4.1,3-7,5.9C338.6,283.2,341.5,281,342.3,279.7z M335.2,285.6c-0.1,0.1-0.3,0.2-0.4,0.3c0,0,0,0,0.1,0.1
										C335,285.9,335.1,285.7,335.2,285.6z M341.7,278.5c-1.5-0.2-5,0.8-9,2C336.8,280,340.4,279.4,341.7,278.5z M332.7,280.5
										c-0.2,0-0.4,0.1-0.6,0.1c0,0,0,0.1,0,0.1C332.3,280.6,332.5,280.6,332.7,280.5z M341.7,277.2c-1.2-0.9-4.8-1.7-8.9-2.4
										C336.7,276.2,340.2,277.4,341.7,277.2z M332.8,274.8c-0.2-0.1-0.4-0.2-0.6-0.2c0,0,0,0.1,0,0.1
										C332.4,274.8,332.6,274.8,332.8,274.8z M342.3,276.1c-0.7-1.3-3.5-3.7-6.7-6.3C338.4,272.9,340.9,275.6,342.3,276.1z
										 M335.6,269.9c-0.2-0.2-0.3-0.4-0.5-0.6c0,0-0.1,0.1-0.1,0.1C335.2,269.5,335.4,269.7,335.6,269.9z M343.4,275.4
										c0-1.5-1.4-4.9-3.1-8.7C341.4,270.7,342.4,274.3,343.4,275.4z M340.3,266.7c-0.1-0.3-0.1-0.5-0.2-0.8c0,0-0.1,0-0.1,0
										C340.1,266.2,340.2,266.5,340.3,266.7z"/>
									<path id="SvgjsPath4549" class="st21" d="M349.3,277.7c0,2.7-2.2,4.9-4.9,4.9c-2.7,0-4.9-2.2-4.9-4.9
										c0-2.7,2.2-4.9,4.9-4.9C347.1,272.8,349.3,275,349.3,277.7z"/>
									<path id="SvgjsPath4550" class="st24" d="M349.3,277.7c0,2.7-2.2,4.9-4.9,4.9c-2.7,0-4.9-2.2-4.9-4.9
										c0-2.7,2.2-4.9,4.9-4.9C347.1,272.8,349.3,275,349.3,277.7z"/>
									
										<linearGradient id="SvgjsPath4551_00000130625123809712422410000002650926987093434815_" gradientUnits="userSpaceOnUse" x1="114.2095" y1="585.0032" x2="114.863" y2="585.7823" gradientTransform="matrix(3 0 0 -3 -5.25 2041.67)">
										<stop  offset="0" style="stop-color:#FFFFFF"/>
										<stop  offset="1" style="stop-color:#FFFFFF;stop-opacity:0"/>
									</linearGradient>
									
										<path id="SvgjsPath4551" style="opacity:0.5;fill:url(#SvgjsPath4551_00000130625123809712422410000002650926987093434815_);enable-background:new    ;" d="
										M337.5,283.5c0.9-0.6,2.2-0.4,2.8,0.6c0.6,0.9,0.4,2.2-0.6,2.8c-0.9,0.6-2.2,0.4-2.8-0.6
										C336.3,285.4,336.5,284.1,337.5,283.5L337.5,283.5z"/>
									
										<linearGradient id="SvgjsPath4555_00000013909794221216310800000004093060626210460855_" gradientUnits="userSpaceOnUse" x1="117.3798" y1="589.1732" x2="116.8569" y2="588.5497" gradientTransform="matrix(3 0 0 -3 -5.25 2041.67)">
										<stop  offset="0" style="stop-color:#FFFFFF"/>
										<stop  offset="1" style="stop-color:#FFFFFF;stop-opacity:0"/>
									</linearGradient>
									
										<path id="SvgjsPath4555" style="opacity:0.5;fill:url(#SvgjsPath4555_00000013909794221216310800000004093060626210460855_);enable-background:new    ;" d="
										M348.2,277c-0.5,0.8-2,0.7-3.4-0.2c-1.3-0.9-2-2.3-1.5-3l0,0c0.5-0.8,2-0.7,3.4,0.2C348.1,274.9,348.8,276.2,348.2,277
										L348.2,277z"/>
									
										<linearGradient id="SvgjsPath4559_00000149361273032635830930000009685969948971697809_" gradientUnits="userSpaceOnUse" x1="119.0723" y1="590.9003" x2="117.8672" y2="589.4642" gradientTransform="matrix(3 0 0 -3 -5.25 2041.67)">
										<stop  offset="0" style="stop-color:#FFFFFF"/>
										<stop  offset="1" style="stop-color:#FFFFFF;stop-opacity:0"/>
									</linearGradient>
									
										<path id="SvgjsPath4559" style="opacity:0.75;fill:url(#SvgjsPath4559_00000149361273032635830930000009685969948971697809_);enable-background:new    ;" d="
										M354.2,274.9c-1.2,1.8-4.3,1.9-6.9,0.2c-2.6-1.7-3.7-4.5-2.5-6.4c1.2-1.8,4.3-1.9,6.9-0.2
										C354.3,270.3,355.4,273.1,354.2,274.9L354.2,274.9z"/>
								</g>
							</g>
						</g>
						<g id="svga-group-eyesfront-right">
							<path id="SvgjsPath4609" class="st1" d="M342.9,230.1c-21.4,0.7-43.7,14.6-43.3,49.7c0.3,31.4,25.3,47.3,46.7,46.6
								c21.4-0.7,33.9-36.3,37-49.6C391.8,241.1,364.3,229.4,342.9,230.1z M349.6,289.7c-10.1,1.3-19.7-0.5-29.7-1.8
								c-2.8-1.3-5-3-4.5-5.1c0-0.1,0-0.1,0.1-0.2c0,0,0,0,0,0c6-9.3,13-15.2,22.6-16.6c7.3-1.1,17.2-0.2,21.6,0.7
								c3.8,0.7,8,1.5,12.3,4c0,2.2-0.1,2.9-0.7,5.2C370.3,278.2,369.9,287.1,349.6,289.7z"/>
							
								<radialGradient id="SvgjsPath4610_00000005236878448030799990000001752488666310363781_" cx="144.5272" cy="703.0412" r="11.8971" fx="153.9084" fy="702.2863" gradientTransform="matrix(-2.9652 0.4101 0.4008 2.2062 484.8107 -1336.2206)" gradientUnits="userSpaceOnUse">
								<stop  offset="0" style="stop-color:#E1AC8F"/>
								<stop  offset="0.7" style="stop-color:#E1AC8F;stop-opacity:0.3"/>
								<stop  offset="1" style="stop-color:#F0C7B1;stop-opacity:0"/>
							</radialGradient>
							<path id="SvgjsPath4610" style="fill:url(#SvgjsPath4610_00000005236878448030799990000001752488666310363781_);" d="
								M373.3,269.8c-2.8-14.3-20.8-23.6-40.2-20.7c-19.4,2.9-32.8,16.9-30,31.3c2.8,14.3,20.8,23.6,40.2,20.6
								C362.7,298.2,376.1,284.2,373.3,269.8z M371.3,275.8c-1,2.3-1.4,11.3-21.6,13.9c-10.1,1.3-19.7-0.5-29.7-1.8
								c-2.8-1.3-5-3-4.5-5.1c0-0.1,0-0.1,0.1-0.2c0,0,0,0,0,0c6-9.3,13-15.2,22.6-16.6c7.3-1.1,17.2-0.2,21.6,0.7
								c3.8,0.7,7.8,1.6,12.3,4C372,272.8,371.8,273.5,371.3,275.8z"/>
							
								<radialGradient id="SvgjsPath4615_00000183210728220242844880000000395506545704578437_" cx="90.167" cy="564.3401" r="18.3175" gradientTransform="matrix(-2.1549 -0.18 0.2409 -1.8429 406.2702 1355.6877)" gradientUnits="userSpaceOnUse">
								<stop  offset="0.95" style="stop-color:#000000;stop-opacity:0"/>
								<stop  offset="1" style="stop-color:#000000;stop-opacity:0.2"/>
							</radialGradient>
							<path id="SvgjsPath4615" style="fill:url(#SvgjsPath4615_00000183210728220242844880000000395506545704578437_);" d="
								M371.3,275.8c0.5-2.3,0.7-3,0.7-5.2c-4.4-2.5-8.5-3.2-12.3-4c-4.4-0.9-14.4-1.8-21.6-0.7c-9.6,1.4-16.6,7.3-22.6,16.6
								c0,0,0,0,0,0c0,0.1,0,0.1-0.1,0.2c-0.5,2.1,1.7,3.8,4.5,5.1c10,1.3,19.6,3.1,29.7,1.8C369.9,287.1,370.3,278.2,371.3,275.8z"
								/>
							<path id="SvgjsPath4619" class="st16" d="M338.9,260.4c-6.9,1.1-13.6,4.3-19.9,8.3c-1.3,0.8-2.9,1.8-5.3,3
								c1.7-0.4,3.3-1.3,4.8-2.1c-1.5,1.5-3,3.2-4.2,4.9c5.3-6.6,15.3-11.6,23.8-13.3c8.2-1.6,23-0.6,34,4.3
								C362.2,259.8,347.5,259,338.9,260.4z"/>
							<path id="SvgjsPath4620" d="M359.9,264.2c3.5,0.8,10.7,3.7,12.6,6.1c0.4,2.4-2.3,0.1-2.9-0.2c-7.9-4.3-21.4-5.3-31.5-3.9
								c-9.6,1.4-16.6,7.1-22.6,16.2C313.2,285.8,320.7,254.7,359.9,264.2z M349.6,289.4c-10.1,1.3-19.8-0.5-29.8-1.8
								c-2.4-0.3,16.8,4.6,30.6,3.4c19.4-1.8,22.7-11.4,21.2-15.7C370,275.7,372.6,286.5,349.6,289.4z"/>
						</g>
					</g>
				</g>
				<g id="svga-group-facehighlight-single">
					
						<radialGradient id="SvgjsPath3902_00000168117517774007370070000004729461428996328863_" cx="98.0559" cy="567.0396" r="28.6246" gradientTransform="matrix(3 0 0 -3 -4 2041.67)" gradientUnits="userSpaceOnUse">
						<stop  offset="0" style="stop-color:#FFE4D6;stop-opacity:0.5"/>
						<stop  offset="0.9" style="stop-color:#F0C7B1;stop-opacity:0"/>
					</radialGradient>
					<path id="SvgjsPath3902" style="fill:url(#SvgjsPath3902_00000168117517774007370070000004729461428996328863_);" d="
						M376,340.5c0.1,47.4-38.3,85.9-85.7,85.9c-47.4,0.1-85.9-38.3-86-85.7c-0.1-47.4,38.3-86,85.7-86.1
						C337.5,254.6,376,293.1,376,340.5z"/>
					
						<radialGradient id="SvgjsPath3906_00000164515239859931277000000016490910555793734538_" cx="98.0562" cy="608.9288" r="25.8314" gradientTransform="matrix(3 0 0 -3 -4 2041.67)" gradientUnits="userSpaceOnUse">
						<stop  offset="0" style="stop-color:#FFE4D6;stop-opacity:0.5"/>
						<stop  offset="0.9" style="stop-color:#F0C7B1;stop-opacity:0"/>
					</radialGradient>
					<path id="SvgjsPath3906" style="fill:url(#SvgjsPath3906_00000164515239859931277000000016490910555793734538_);" d="
						M368.7,214.9c0,43.4-35.2,78.5-78.5,78.5c-43.4,0-78.5-35.2-78.5-78.5s35.2-78.5,78.5-78.5
						C333.5,136.3,368.7,171.5,368.7,214.9z"/>
				</g>
				<g id="svga-group-eyebrows-left-move" transform="matrix(1,0,0,1,0,0)">
					<g id="svga-group-eyebrows-left-rotate" transform="matrix(1,0,0,1,0,0)">
						<g id="svga-group-eyebrows-left" transform="matrix(1,0,0,1,0,0)">
							<path id="SvgjsPath4036" class="st40" d="M193.8,257.2c20.8-20.9,35.1-12.4,64.1-6.8c1.8,0.3,13.2,3.2,11.1,7.3
								c-1,1.9-4.3,1.7-6.1,1.7C234.3,258.7,220.3,238.3,193.8,257.2z"/>
						</g>
					</g>
				</g>
				<g id="svga-group-eyebrows-right-move" transform="matrix(1,0,0,1,0,0)">
					<g id="svga-group-eyebrows-right-rotate" transform="matrix(1,0,0,1,0,0)">
						<g id="svga-group-eyebrows-right" transform="matrix(1,0,0,1,0,0)">
							<path id="SvgjsPath4037" class="st40" d="M386.5,257.2c-20.8-20.9-35.1-12.4-64.1-6.8c-1.8,0.3-13.2,3.2-11.1,7.3
								c1,1.9,4.3,1.7,6.1,1.7C346.1,258.7,360,238.3,386.5,257.2z"/>
						</g>
					</g>
				</g>
				<g id="svga-group-nose-single-move" transform="matrix(1,0,0,1,0,0)">
					<g id="svga-group-nose-single" transform="matrix(1,0,0,1,0,0)">
						<path id="SvgjsPath4345" class="st3" d="M271.6,343.7c-1.8,4.3,12.4,9,17.8,9.3c5.9,0.3,22.3-6.1,19.5-10.5
							c-2.9-4.6-13.9-0.6-18.7-0.6C285.5,341.9,274,337.9,271.6,343.7z"/>
						<path id="SvgjsPath4346" class="st16" d="M294.1,347c-0.5-1.6,3.9-3.3,5.6-3.5c2.3-0.3,7,1.7,6.6,3.3c-0.4,1.5-4.5-1.1-6-0.9
							C298.7,346.1,294.5,348.4,294.1,347z M279.6,346.4c2,0,5,1.3,5.6,0.2c0.7-1.4-4.5-3.1-6-2.9c-1.2,0.1-5.7,2.8-5.1,3.9
							C274.7,348.6,277,346.4,279.6,346.4z"/>
						<path id="SvgjsPath4347" class="st41" d="M290.4,336.4c1.3,0,3.6-1.5,3.8-4.7c0.4-12.6-2-49.9-3.8-49.8
							c-1.6,0.1-4.7,36.9-4.1,49.8C286.4,334.8,288.9,336.4,290.4,336.4z"/>
					</g>
				</g>
				<g id="svga-group-beardwrap" transform="matrix(1,0,0,1,0,0)">
					<g id="svga-group-beard-single-move" transform="matrix(1,0,0,1,0,0)">
						<g id="svga-group-beard-single" transform="matrix(1,0,0,1,0,0)">
							<path id="SvgjsPath4457" class="st42" d="M290.2,139.8L290.2,139.8L290.2,139.8L290.2,139.8z"/>
						</g>
					</g>
				</g>
				<g id="svga-group-mustache-single-move" transform="matrix(1,0,0,1,0,0)">
					<g id="svga-group-mustache-single" transform="matrix(1,0,0,1,0,0)">
						<path id="SvgjsPath4435" class="st40" d="M290.2,139.8L290.2,139.8L290.2,139.8L290.2,139.8z"/>
					</g>
				</g>
				<g id="svga-group-hair-front" transform="matrix(1,0,0,1,0,0)">
					<path id="SvgjsPath4432" class="st43" d="M425,208.1c-0.3-6.9-3.2-17.3-5.2-23.7c-2.3,4-2.6,4-3.9,6.1
						c-0.4-2.5-3.4-29.2-13.4-44.4c-1.1,4,0.1,8.6-2.3,11.7c-5.4-11.2-13.2-30.5-31.1-43.2c1.8,4.8,0.9,6.1,1.3,7.7
						c-5.3-7.6-11.5-11.6-21.6-17.4c0,3.5,0.3,5.8,0.3,5.8c-3.7-4.2-12.1-16.1-22.9-23c0.5,1.8-0.5,5.8-0.2,7.8
						c-3.5-7.5-14.4-22.1-25-20.4c-3-3-5.6-8.1-8.3-11.6c-1.7,9.1-16,29-30.7,37.9c0.5-3.7-0.2-7.1-1.1-10.9
						c-2.7,5.5-11.3,16.1-17.6,18.5c0.6-2.7,0.1-8,0.1-8c-3.3,4.4-6.2,6.8-10.6,10.6c0.1-2.5,1.3-7.6,2.1-10.2
						c-6.9,3.1-13.8,11.2-18.8,17.1c-0.5-3.4,0.6-10.4,1.7-11.9c-24.7,16.3-36.4,29.5-47.6,61.1c-0.7-1.6-1.2-3.5-1.5-8.7
						c-14.1,22.9-22.1,38.8-7.2,95.9c-3-1.8-4.7-3.1-7.1-5.5c3.5,23.8,8.7,31.7,26.6,52.1c8.8-10.2,4.1-28.3,2.6-36.8
						c0.2-12.9,3.8-10.7,4.3-16.5c0.2-2.6,1.6-7.1,1.4-9.7c-1-10.5,2.4-29.2,7.3-41.6c7.5-11.1,16.2-18.5,27.3-25.2
						c17.6-3.5,34,3.8,39.1,5.1c9.1,2.3,45.4,2.3,54.5,0c6.3-1.6,23.8-9,41.9-4.2c13.7,7.8,21.3,15.2,26.9,29.4
						c3.6,11.3,5.6,25.4,4.8,34.4c-0.2,2.6,0.9,9.1,1.2,11.8c0.2,2.4,3.3,7.7,3.9,10.1c2.4,9.7-2.6,35.4-2.6,35.4
						c-0.1,3.6,0.2,7.2,1.4,10.6c13-8.1,13.9-12.9,15.7-19c1.5-5,9.7-24.1,9.9-27.6c-1.7,1.8-5,4.1-6.9,4.9c1.5-5.8,8.3-16.7,9.6-23
						C425.6,228.6,425.5,219.6,425,208.1z"/>
					<path id="SvgjsPath4433" class="st0" d="M425,208.1c-0.3-6.9-3.2-17.3-5.2-23.7c-2.3,4-2.6,4-3.9,6.1
						c-0.4-2.5-3.4-29.2-13.4-44.4c-1.1,4,0.1,8.6-2.3,11.7c-5.4-11.2-13.2-30.5-31.1-43.2c1.8,4.8,0.9,6.1,1.3,7.7
						c-5.3-7.6-11.5-11.6-21.6-17.4c0,3.5,0.3,5.8,0.3,5.8c-3.7-4.2-12.1-16.1-22.9-23c0.5,1.8-0.5,5.8-0.2,7.8
						c-3.5-7.5-14.4-22.1-25-20.4c-3-3-5.6-8.1-8.3-11.6c-1.7,9.1-16,29-30.7,37.9c0.5-3.7-0.2-7.1-1.1-10.9
						c-2.7,5.5-11.3,16.1-17.6,18.5c0.6-2.7,0.1-8,0.1-8c-3.3,4.4-6.2,6.8-10.6,10.6c0.1-2.5,1.3-7.6,2.1-10.2
						c-6.9,3.1-13.8,11.2-18.8,17.1c-0.5-3.4,0.6-10.4,1.7-11.9c-24.7,16.3-36.4,29.5-47.6,61.1c-0.7-1.6-1.2-3.5-1.5-8.7
						c-14.1,22.9-22.1,38.8-7.2,95.9c-3-1.8-4.7-3.1-7.1-5.5c3.4,23.2,8.5,31.3,25.1,50.4c-8-13.5-17.7-25-21.2-41.1
						c4.2,2.1,10.5,6.3,14.7,8.4c-10.5-29.3-20.9-67-6.3-94.3c2.1,8.4,7.4,18.3,11.6,24.6c-9.2-24.9,11.4-56,26.1-74.8
						c0,10.5-2.1,23,2.1,33.5c0-14.7,10.5-23,16.8-35.6c0,8.4-2.1,14.7,2.1,23c2.1-10.5,4.2-20.9,10.5-29.3
						c4.2,8.4,2.1,16.8,6.3,25.1c0-12.6,6.3-18.9,8.4-29.3c4.6,10.6,8.4,12.6,10.5,20.9c-2.1-23,29.7-25,31.8-48
						c2.1,14.7,5.9,25,3.8,41.7c8.4-10.5,12.6-23,14.7-37.7c14.7,12.6,10.5,29.3,16.8,44c4.2-8.4,4.2-18.9,6.3-29.3
						c8.4,14.7,16.8,31.4,23,48.2c2.1-10.5,6-15.2,0-31.4c14.7,10.5,25.1,29.3,23,48.2c2.1-10.5,4.2-20.9,4.2-31.4
						c2.1,23,16.8,44,14.7,69.1c4.2-10.5,8.4-20.9,8.4-33.5c1.9,21.1,5.5,43.9-0.2,65.2c3.2-7.9,8.6-15.3,8.6-25.4
						c6.3,23-14.7,41.9-12.6,64.9c0-3.6,6.1-5.6,7.9-8.7c0.2-0.6,0.3-1.1,0.5-1.7c0,0.6-0.2,1.2-0.5,1.7
						c-3.3,11.3-6.2,22.5-10.4,33.4c7.4-5.8,8.3-9.9,9.8-14.9c1.5-5,9.7-24.1,9.9-27.6c-1.7,1.8-5,4.1-6.9,4.9
						c1.5-5.8,8.3-16.7,9.6-23C425.6,228.6,425.5,219.6,425,208.1z"/>
					<path id="SvgjsPath4434" class="st44" d="M419.3,179.9c-0.8,3.3-1,4.1-2.4,7.4c-1-11.7-6.2-30.8-15.4-44
						c-0.3,4.5-0.5,7-1.2,11.2c-2.5-8.9-13.6-29.3-33-42.4c0.2,0.7,0.5,1.5,0.8,2.2v0c0.6,1.6,1,3.4,1.6,5.3
						c-8-10-15.3-11.7-22.2-16.5c0.4,2.1,0.6,4.1,0.6,4.3c-8.5-11.5-14.7-16.1-22.5-20.5c0.1,1,0.3,5.1,0.3,7.6
						c-5.1-10.7-9.7-18.8-24.9-20.3c-1.1-2.1-4.8-8.6-8.7-12.5c-4.8,16.9-18,28.7-29.6,38.7c0-3.9-0.6-7.8-1.5-11.5
						c-4.7,8.4-8.3,13-17.3,19.8c0.2-1.6,0.3-6.4,0.2-9.4c-2.5,3.4-6.4,7.6-10.7,11.3c0,0,2.4-10.3,2.5-10.4c-0.3,0.2-0.7,0.3-1,0.5
						c-2,0.5-10.9,6.2-18.7,16.4c0.8-7.2,2.2-9.8,2.7-11.9c-23.3,13.3-41.7,34.1-49,60.6c-0.4-3.7-0.6-6.9-0.6-8.1
						c-10.7,13.4-15.8,27.3-16.5,30.7c-4.3,19.4,1,51.8,7.4,65.4c-4-3.2-0.4,0-6.7-5.7c0,9.9,2.1,16.8,5.7,25.3
						c5.1,12,12.3,19.6,21.8,28.1c-9.8-12-23.2-28.7-25.9-50.5c1.8,1.7,2.8,2.4,5.8,4.8h0c0,0,0,0,0,0c1.4,0.9,0.5,0.5,2.1,1.4
						c-15.7-56.9-4.3-79.4,5.3-97.2c0.3,8.3,1.7,12,4.5,16.5c-1.4-3.7-1.2-2.5-2.3-6.9c7.6-24.2,25.5-43.9,44.7-60.3
						c0.5-0.4,1-0.8,1.5-1.2c-0.7,1.7-1.7,7.2-1.7,10.5c-4.4,6.2-5.2,11.6-5.6,13.9c0.7-2.1,1.5-5.5,5.6-11.2v0
						c5.4-8.4,15.2-16.6,19.4-19.5c-2.7,9.2-2.9,12.8-2.7,19.6c0.4-3.8,0.4-4,1.3-9.2c3.5-2.7,7.1-6.2,10.2-10.4
						c-0.2,4.8,0.1,11.5-2.7,17.4c2.3-3.5,3.2-7.7,3.2-9.8c2.7-1.7,9.3-4.5,17-17.6c1.7,11.2,0.4,17.4-1.2,21.8
						c1.4-2.5,3.2-6.1,3.2-12.1c14.2-9.8,24.1-18.4,29.8-35.2c0.2-0.6,0.3-1.3,0.4-1.9c3.2,4.6,15.9,24.9,13.4,30.3
						c3.2-3.3-2.6-15.6-4.8-19.8c16,4,17.5,8.5,28.4,31c-1.3-4.2-2.3-7.9-3.1-9.9c0.3-3.8,0-5.7-0.2-7.7c10.9,8.5,29,28.4,29,43.6
						c0.9-5.7,0.5-10.7-4.1-19.1c-0.6-1-1.1-2-1.8-2.9c-0.1-1.3-0.7-4-0.7-4c3.8,4,12.1,4.9,21.9,19.6c1.3,1.8,7.3,13.4,9.7,17.5
						c-5-13.9-6.4-16.1-8.1-19.3c-0.8-3.7-0.8-3.4-2.1-7.2c22.1,21.8,30.3,35.5,33.2,66.4c0.5-8.3,0.3-16.7-2.1-24.6
						c0.7-2.9,1.2-6.2,1.5-9.4c1.5,3,7.4,17.9,10.3,32.3c2.5,12.7,2.5,20.5,1.9,29c2.1-8.9,2.3-16.8,2-19.9c0.8-1.2,1.4-2.6,1.9-3.7
						c4.1,22.1,10.2,40.3-7.6,78.6c2-1.1,5.7-3.1,7.9-5.7c0,0-6.2,14.9-9.6,24.4c-5.8,14.5-5.2,13-14.9,20.6
						c10.7-4.4,13.7-10.6,17.2-19.7c6.6-19.3,6-12.9,11-31.6c-2.3,2.9-4.1,5.3-7,7.7C435.5,225.4,425.2,201.2,419.3,179.9z"/>
				</g>
				<g id="svga-group-glasses-single-move" transform="matrix(1,0,0,1,0,1)">
					<g id="svga-group-glasses-single" transform="matrix(0.9499999,0,0,0.9499999,4.999510273658757,4.249817192549514)">
						<path id="SvgjsPath4721" class="st45" d="M282.8,300.1c-7.8,15.6-29.6,17.1-37.2,17.1h-25.4c-12,0-22.7-16.7-22.7-29.9v-12.9
							c0-0.5,0.2-1,0.6-1.5L282.8,300.1z M321.9,273.7c-4.3,3-7.1,7-7.1,12.4v1c0,5.1,1,9.4,2.8,12.9c7.8,15.6,29.6,17.1,37.2,17.1
							h25.4c8.6,0,16.4-8.5,20.3-18.1L321.9,273.7z"/>
						<path id="SvgjsPath4722" class="st46" d="M282.8,300.1L198,272.8c2.1-2.8,9.2-5.7,12.9-6.1c4.6-0.5,13.9-1.4,25-1.4
							c18.6,0,49.7,2.7,49.7,20.9v1C285.6,292.3,284.5,296.6,282.8,300.1z M403,287.2v-12.9c0-0.5-0.2-1-0.6-1.5
							c-2.1-2.8-9.2-5.7-12.9-6.1c-4.6-0.5-13.9-1.4-25-1.4c-13,0-32.3,1.3-42.6,8.4l78.6,25.3C402.1,295.1,403,291,403,287.2z"/>
						<path id="SvgjsPath4723" class="st47" d="M404.3,278v-3.7c0-4.4-10.3-8.4-14.7-8.9c-19.7-2.3-66-4.2-74.8,14.2
							c-5.8-1.9-12.3-2.7-14.7-2.7c-2.4,0-8.9,0.8-14.7,2.7c-8.7-18.4-55-16.5-74.8-14.2c-4.4,0.5-14.7,4.5-14.7,8.9v3.7h-10v4.9h10
							v4.3c0,13.2,10.8,31.3,24.1,31.3h25.4c17.4,0,41.4-6.6,41.4-31.3v-1c0-1.6-0.2-3.1-0.6-4.4c7.2-2.2,11.6-2.7,13.9-2.7
							c2.2,0,6.6,0.5,13.9,2.7c-0.4,1.4-0.6,2.8-0.6,4.4v1c0,24.7,24,31.3,41.4,31.3h25.4c13.3,0,24.1-18.1,24.1-31.3v-4.3h10V278
							H404.3z M285.2,287.2c0,27.5-30.4,29.6-39.7,29.6h-25.4c-11.9,0-22.4-16.5-22.4-29.6v-12.9c0-2.7,8.6-6.7,13.2-7.2
							c4.5-0.5,13.9-1.4,25-1.4c18.4,0,49.3,2.7,49.3,20.5L285.2,287.2L285.2,287.2z M402.6,287.2c0,13-10.6,29.6-22.4,29.6h-25.4
							c-9.3,0-39.7-2.1-39.7-29.6v-1c0-17.8,30.9-20.5,49.3-20.5c11.1,0,20.4,0.9,25,1.4c4.6,0.5,13.2,4.5,13.2,7.2V287.2z"/>
					</g>
				</g>
			</g>
		</g>
	</g>
	<rect id="SvgjsRect3887" x="80.7" y="489.3" class="st48" width="418.9" height="31.4"/>
</g>
</svg>
